{
  "source": "C:\\Users\\Peter\\Desktop\\stuff\\MIUN\\quantitative_research\\video_compression\\videos\\HEVC_CLASS_B\\BQTerrace_1920x1080_60.y4m",
  "output": "C:\\Users\\Peter\\Desktop\\stuff\\MIUN\\quantitative_research\\video_compression\\compressed_videos\\HEVC_CLASS_B\\h264\\4\\BQTerrace_1920x1080_60_h264.mp4",
  "codec": "h264",
  "ok": "Input #0, yuv4mpegpipe, from 'C:\\Users\\Peter\\Desktop\\stuff\\MIUN\\quantitative_research\\video_compression\\videos\\HEVC_CLASS_B\\BQTerrace_1920x1080_60.y4m':\n  Duration: 00:00:10.00, start: 0.000000, bitrate: 1492994 kb/s\n  Stream #0:0: Video: rawvideo (I420 / 0x30323449), yuv420p(progressive), 1920x1080, 60 fps, 60 tbr, 60 tbn\n[out#0/mp4 @ 000002490c5ca640] Codec AVOption b:a (set bitrate (in bits/s)) has not been used for any stream. The most likely reason is either wrong type (e.g. a video option with no video streams) or that it is a private option of some decoder which was not actually used for any stream.\nStream mapping:\n  Stream #0:0 -> #0:0 (rawvideo (native) -> h264 (libx264))\nPress [q] to stop, [?] for help\n[libx264 @ 000002490c5ccac0] using cpu capabilities: MMX2 SSE2Fast SSSE3 SSE4.2 AVX FMA3 BMI2 AVX2\n[libx264 @ 000002490c5ccac0] profile High, level 5.0, 4:2:0, 8-bit\n[libx264 @ 000002490c5ccac0] 264 - core 165 r3222 b35605a - H.264/MPEG-4 AVC codec - Copyleft 2003-2025 - http://www.videolan.org/x264.html - options: cabac=1 ref=5 deblock=1:0:0 analyse=0x3:0x113 me=hex subme=8 psy=1 psy_rd=1.00:0.00 mixed_ref=1 me_range=16 chroma_me=1 trellis=2 8x8dct=1 cqm=0 deadzone=21,11 fast_pskip=1 chroma_qp_offset=-2 threads=18 lookahead_threads=3 sliced_threads=0 nr=0 decimate=1 interlaced=0 bluray_compat=0 constrained_intra=0 bframes=3 b_pyramid=2 b_adapt=1 b_bias=0 direct=3 weightb=1 open_gop=0 weightp=2 keyint=250 keyint_min=25 scenecut=40 intra_refresh=0 rc_lookahead=50 rc=cbr mbtree=1 bitrate=4000 ratetol=1.0 qcomp=0.60 qpmin=0 qpmax=69 qpstep=4 vbv_maxrate=4000 vbv_bufsize=4000 nal_hrd=none filler=0 ip_ratio=1.40 aq=1:1.00\nOutput #0, mp4, to 'C:\\Users\\Peter\\Desktop\\stuff\\MIUN\\quantitative_research\\video_compression\\compressed_videos\\HEVC_CLASS_B\\h264\\4\\BQTerrace_1920x1080_60_h264.mp4':\n  Metadata:\n    encoder         : Lavf62.3.100\n  Stream #0:0: Video: h264 (avc1 / 0x31637661), yuv420p(tv, progressive), 1920x1080, q=2-31, 4000 kb/s, 60 fps, 15360 tbn\n    Metadata:\n      encoder         : Lavc62.11.100 libx264\n    Side data:\n      cpb: bitrate max/min/avg: 4000000/0/4000000 buffer size: 4000000 vbv_delay: N/A\nframe=    0 fps=0.0 q=0.0 size=       0KiB time=N/A bitrate=N/A speed=N/A elapsed=0:00:00.52    \nframe=    0 fps=0.0 q=0.0 size=       0KiB time=N/A bitrate=N/A speed=N/A elapsed=0:00:01.09    \nframe=   33 fps= 20 q=36.0 size=       0KiB time=00:00:00.50 bitrate=   0.8kbits/s speed=0.303x elapsed=0:00:01.64    \nframe=   61 fps= 27 q=36.0 size=     256KiB time=00:00:00.98 bitrate=2133.1kbits/s speed=0.432x elapsed=0:00:02.27    \nframe=   80 fps= 29 q=36.0 size=     256KiB time=00:00:01.30 bitrate=1613.5kbits/s speed=0.464x elapsed=0:00:02.79    \nframe=  105 fps= 31 q=36.0 size=     512KiB time=00:00:01.65 bitrate=2542.2kbits/s speed=0.491x elapsed=0:00:03.36    \nframe=  129 fps= 32 q=36.0 size=     768KiB time=00:00:02.11 bitrate=2972.5kbits/s speed=0.525x elapsed=0:00:04.02    \nframe=  157 fps= 34 q=36.0 size=    1024KiB time=00:00:02.58 bitrate=3247.4kbits/s speed=0.562x elapsed=0:00:04.60    \nframe=  187 fps= 36 q=35.0 size=    1024KiB time=00:00:02.98 bitrate=2812.0kbits/s speed=0.575x elapsed=0:00:05.18    \nframe=  212 fps= 37 q=36.0 size=    1280KiB time=00:00:03.50 bitrate=2996.0kbits/s speed=0.603x elapsed=0:00:05.80    \nframe=  233 fps= 37 q=36.0 size=    1280KiB time=00:00:03.85 bitrate=2723.7kbits/s speed=0.607x elapsed=0:00:06.33    \nframe=  250 fps= 36 q=36.0 size=    1536KiB time=00:00:04.13 bitrate=3044.3kbits/s speed=0.601x elapsed=0:00:06.88    \nframe=  282 fps= 38 q=35.0 size=    1792KiB time=00:00:04.66 bitrate=3145.8kbits/s speed=0.627x elapsed=0:00:07.43    \nframe=  307 fps= 38 q=36.0 size=    1792KiB time=00:00:05.08 bitrate=2888.0kbits/s speed=0.637x elapsed=0:00:07.97    \nframe=  338 fps= 39 q=36.0 size=    2048KiB time=00:00:05.43 bitrate=3087.9kbits/s speed=0.634x elapsed=0:00:08.56    \nframe=  369 fps= 40 q=36.0 size=    2304KiB time=00:00:05.96 bitrate=3163.4kbits/s speed=0.65x elapsed=0:00:09.17    \nframe=  396 fps= 40 q=36.0 size=    2304KiB time=00:00:06.48 bitrate=2911.3kbits/s speed=0.66x elapsed=0:00:09.83    \nframe=  422 fps= 41 q=36.0 size=    2560KiB time=00:00:06.96 bitrate=3010.3kbits/s speed=0.669x elapsed=0:00:10.40    \nframe=  446 fps= 41 q=37.0 size=    2816KiB time=00:00:07.33 bitrate=3145.8kbits/s speed=0.67x elapsed=0:00:10.93    \nframe=  473 fps= 41 q=37.0 size=    2816KiB time=00:00:07.81 bitrate=2951.3kbits/s speed=0.68x elapsed=0:00:11.49    \nframe=  488 fps= 40 q=38.0 size=    3072KiB time=00:00:08.10 bitrate=3106.9kbits/s speed=0.67x elapsed=0:00:12.08    \nframe=  520 fps= 41 q=36.0 size=    3328KiB time=00:00:08.63 bitrate=3157.9kbits/s speed=0.684x elapsed=0:00:12.62    \nframe=  545 fps= 41 q=35.0 size=    3328KiB time=00:00:09.05 bitrate=3012.5kbits/s speed=0.688x elapsed=0:00:13.15    \nframe=  573 fps= 42 q=35.0 size=    3584KiB time=00:00:09.51 bitrate=3085.2kbits/s speed=0.694x elapsed=0:00:13.71    \n[mp4 @ 000002490c5cb740] Starting second pass: moving the moov atom to the beginning of the file\n[out#0/mp4 @ 000002490c5ca640] video:3879KiB audio:0KiB subtitle:0KiB other streams:0KiB global headers:0KiB muxing overhead: 0.203705%\nframe=  600 fps= 43 q=-1.0 Lsize=    3887KiB time=00:00:09.96 bitrate=3194.7kbits/s speed=0.709x elapsed=0:00:14.06    \n[libx264 @ 000002490c5ccac0] frame I:3     Avg QP:32.97  size:108497\n[libx264 @ 000002490c5ccac0] frame P:151   Avg QP:33.40  size: 15104\n[libx264 @ 000002490c5ccac0] frame B:446   Avg QP:39.06  size:  3061\n[libx264 @ 000002490c5ccac0] consecutive B-frames:  0.8%  0.0%  0.5% 98.7%\n[libx264 @ 000002490c5ccac0] mb I  I16..4: 27.5% 54.2% 18.3%\n[libx264 @ 000002490c5ccac0] mb P  I16..4:  0.1%  0.4%  0.1%  P16..4: 29.5%  6.1%  4.9%  0.0%  0.0%    skip:59.0%\n[libx264 @ 000002490c5ccac0] mb B  I16..4:  0.0%  0.0%  0.0%  B16..8: 39.2%  0.6%  0.1%  direct: 0.2%  skip:59.9%  L0:43.0% L1:56.6% BI: 0.4%\n[libx264 @ 000002490c5ccac0] 8x8 transform intra:56.2% inter:60.3%\n[libx264 @ 000002490c5ccac0] direct mvs  spatial:97.8% temporal:2.2%\n[libx264 @ 000002490c5ccac0] coded y,uvDC,uvAC intra: 59.5% 39.8% 15.4% inter: 2.8% 1.3% 0.1%\n[libx264 @ 000002490c5ccac0] i16 v,h,dc,p: 34% 26%  4% 37%\n[libx264 @ 000002490c5ccac0] i8 v,h,dc,ddl,ddr,vr,hd,vl,hu: 15%  7%  8%  9% 11%  8% 11%  7% 23%\n[libx264 @ 000002490c5ccac0] i4 v,h,dc,ddl,ddr,vr,hd,vl,hu: 12%  6%  6%  9%  9%  9% 11% 10% 27%\n[libx264 @ 000002490c5ccac0] i8c dc,h,v,p: 37% 47% 10%  5%\n[libx264 @ 000002490c5ccac0] Weighted P-Frames: Y:9.9% UV:4.6%\n[libx264 @ 000002490c5ccac0] ref P L0: 53.5% 24.3% 12.7%  5.0%  4.3%  0.3%\n[libx264 @ 000002490c5ccac0] ref B L0: 85.2% 10.5%  3.5%  0.8%\n[libx264 @ 000002490c5ccac0] ref B L1: 94.8%  5.2%\n[libx264 @ 000002490c5ccac0] kb/s:3176.92\n",
  "seconds": 14.27943730354309,
  "probe_out": {}
}